<svg xmlns="http://www.w3.org/2000/svg" viewBox="0 0 76.53 100.52"><defs><style>.cls-1{fill:#ffaf5b;}.cls-2{fill:#127c46;}</style></defs><g id="Layer_2" data-name="Layer 2"><g id="Layer_1-2" data-name="Layer 1"><path class="cls-1" d="M74.66,26.15a37.31,37.31,0,0,0-23.56-24l-.7-.23A41.61,41.61,0,0,0,38.26,0,41.59,41.59,0,0,0,26.13,1.88L25.67,2A37.27,37.27,0,0,0,1.86,26.15,41.58,41.58,0,0,0,.24,34a38.55,38.55,0,0,0,0,8.59,38.12,38.12,0,0,0,7.4,18.71l18,23.11,12.59,16.15L51.1,84.07,68.89,61.26A38.75,38.75,0,0,0,74.66,26.15ZM51.1,54.4a20.58,20.58,0,1,1,7.78-16.12A20.53,20.53,0,0,1,51.1,54.4Z"/><path class="cls-2" d="M51.47,40a1.85,1.85,0,0,0-1.75.11.61.61,0,0,1-.57.05l-1.54-.59a1.62,1.62,0,0,1-1-1.43,8.58,8.58,0,0,0-.63-2.91,1.62,1.62,0,0,1,.29-1.71l1.66-1.77a.66.66,0,0,1,.58-.21,2,2,0,0,0,1.75-.72,2.16,2.16,0,0,0,.23-2.19,2,2,0,0,0-3.76.77.75.75,0,0,1-.32.55l-2,1.3a1.59,1.59,0,0,1-1.74,0A8.45,8.45,0,0,0,38.53,30a1.65,1.65,0,0,1-1.43-1l-.6-1.57a.69.69,0,0,1,.06-.61A2,2,0,0,0,34,24h0A2.14,2.14,0,0,0,33,25.89a2,2,0,0,0,1,1.56.71.71,0,0,1,.35.51l.21,1.67a1.62,1.62,0,0,1-.75,1.6,6.84,6.84,0,0,0-1,.73A8.65,8.65,0,0,0,30.92,34a1.61,1.61,0,0,1-1.62.75l-1.68-.24a.61.61,0,0,1-.44-.31,1.72,1.72,0,0,0-2.33-.66A1.74,1.74,0,0,0,24,35a1.65,1.65,0,0,0,.85,1.55,1.7,1.7,0,0,0,1.73,0,.58.58,0,0,1,.53,0l1.58.64a1.62,1.62,0,0,1,1,1.45A8.4,8.4,0,0,0,30.51,42a1.62,1.62,0,0,1-.3,1.79l-.57.62a.81.81,0,0,1-.69.25A2.33,2.33,0,1,0,31,47.25v-.06a.82.82,0,0,1,.37-.64l1-.66a1.69,1.69,0,0,1,1.71,0,8.46,8.46,0,0,0,3.78,1,1.61,1.61,0,0,1,1.42,1l.77,1.75a.64.64,0,0,1,0,.54,1.76,1.76,0,0,0,.67,2.39,1.74,1.74,0,0,0,1.71,0,1.71,1.71,0,0,0,.9-1.57,1.77,1.77,0,0,0-1-1.51.61.61,0,0,1-.32-.44l-.3-1.72a1.63,1.63,0,0,1,.75-1.66,8.51,8.51,0,0,0,1-.74,8.26,8.26,0,0,0,1.76-2.06,1.63,1.63,0,0,1,1.59-.75l1.69.22a.66.66,0,0,1,.49.33,1.86,1.86,0,0,0,2.54.68,1.88,1.88,0,0,0,.93-1.56A2,2,0,0,0,51.47,40ZM33,35.76A1.23,1.23,0,1,1,34.22,37,1.23,1.23,0,0,1,33,35.76Zm3.3,7.92a1.52,1.52,0,1,1,1.52-1.51A1.51,1.51,0,0,1,36.29,43.68Zm2.18-5.33a.87.87,0,1,1,.87-.87A.87.87,0,0,1,38.47,38.35Zm3.36,4a.85.85,0,1,1,0-1.7.85.85,0,0,1,0,1.7Zm.85-5.88a1.08,1.08,0,1,1,1.07-1.08A1.08,1.08,0,0,1,42.68,36.47Z"/></g></g></svg>