<svg xmlns="http://www.w3.org/2000/svg" viewBox="0 0 102.05 134.03"><defs><style>.cls-1{fill:#fd0;}.cls-2{fill:#0057b7;}</style></defs><g id="Layer_2" data-name="Layer 2"><g id="Layer_1-2" data-name="Layer 1"><path class="cls-1" d="M91.86,81.67,51,134V78.53a27.49,27.49,0,1,0,0-55V0A55.11,55.11,0,0,1,67.2,2.51,49.69,49.69,0,0,1,99.56,34.87C104.66,51.28,101.83,68.32,91.86,81.67Z"/><path class="cls-2" d="M2.49,34.87A49.67,49.67,0,0,1,34.85,2.51,55,55,0,0,1,51,0V23.56a27.49,27.49,0,0,0,0,55V134L10.19,81.67C.21,68.32-2.61,51.28,2.49,34.87Z"/><path class="cls-2" d="M51,31.79A19.24,19.24,0,1,0,70.26,51,19.32,19.32,0,0,0,51,31.79ZM48.77,65.57a14.66,14.66,0,0,1-7.62-3.73l7.62-7.62Zm0-17.73L38.31,58.3a14.6,14.6,0,0,1-2-7.27A14.8,14.8,0,0,1,48.77,36.49Zm4.51,17.73V54.22l7.62,7.62A14.7,14.7,0,0,1,53.28,65.57ZM63.74,58.3,53.28,47.84V36.49A14.79,14.79,0,0,1,65.75,51,14.6,14.6,0,0,1,63.74,58.3Z"/></g></g></svg>