<svg xmlns="http://www.w3.org/2000/svg" viewBox="0 0 127.22 95.47"><defs><style>.cls-1{fill:none;}.cls-2{fill:#0057b7;}.cls-3{fill:#fd0;}</style></defs><g id="Layer_2" data-name="Layer 2"><g id="Layer_1-2" data-name="Layer 1"><polygon class="cls-1" points="107.25 14.33 107.25 11.42 63.61 11.42 19.97 11.42 19.97 14.33 63.61 14.33 107.25 14.33"/><path class="cls-2" d="M63.61,25.23a22.53,22.53,0,0,1,22.5,22.5h41.11V45a4.47,4.47,0,0,1,0-8.93V30.7a4.47,4.47,0,0,1,0-8.93V11.9A11.9,11.9,0,0,1,115.32,0H11.9A11.9,11.9,0,0,1,0,11.9v9.87a4.46,4.46,0,0,1,4.46,4.46A4.47,4.47,0,0,1,0,30.7v5.4a4.47,4.47,0,0,1,4.46,4.47A4.46,4.46,0,0,1,0,45v2.7H41.11A22.53,22.53,0,0,1,63.61,25.23ZM20,11.42h87.28v2.91H20Z"/><path class="cls-3" d="M4.46,54.9A4.46,4.46,0,0,1,0,59.36v5.41a4.46,4.46,0,0,1,4.46,4.46A4.47,4.47,0,0,1,0,73.7v9.87a11.9,11.9,0,0,1,11.9,11.9H115.32a11.9,11.9,0,0,1,11.9-11.9V73.7a4.47,4.47,0,0,1,0-8.93V59.36a4.46,4.46,0,1,1,0-8.92V47.73H86.11a22.5,22.5,0,1,1-45,0H0v2.71A4.46,4.46,0,0,1,4.46,54.9ZM20,81.13h87.28v2.92H20Z"/><path class="cls-2" d="M79.36,47.73A15.75,15.75,0,1,0,63.61,63.48,15.81,15.81,0,0,0,79.36,47.73Zm-17.6,11.9a11.91,11.91,0,0,1-6.23-3.05l6.23-6.24Zm0-14.51L53.2,53.68a11.92,11.92,0,0,1,8.56-17.85Zm3.69,14.51V50.34l6.24,6.24A11.9,11.9,0,0,1,65.45,59.63Zm0-14.51V35.83A11.92,11.92,0,0,1,74,53.68Z"/></g></g></svg>