<svg xmlns="http://www.w3.org/2000/svg" viewBox="0 0 294.96 191.68"><defs><style>.cls-1{fill:#fd0;}.cls-2{fill:#0057b7;}</style></defs><g id="Layer_2" data-name="Layer 2"><g id="Layer_1-2" data-name="Layer 1"><path class="cls-1" d="M187.84,81.67,147,134V78.53a27.49,27.49,0,0,0,0-55V0a55,55,0,0,1,16.17,2.51,49.67,49.67,0,0,1,32.36,32.36C200.64,51.28,197.82,68.32,187.84,81.67Z"/><path class="cls-2" d="M98.47,34.87A49.69,49.69,0,0,1,130.83,2.51,55.11,55.11,0,0,1,147,0V23.56a27.49,27.49,0,1,0,0,55V134L106.17,81.67C96.2,68.32,93.37,51.28,98.47,34.87Z"/><path class="cls-2" d="M147,31.79A19.24,19.24,0,1,0,166.25,51,19.31,19.31,0,0,0,147,31.79Zm-2.26,33.78a14.7,14.7,0,0,1-7.62-3.73l7.62-7.62Zm0-17.73L134.29,58.3a14.6,14.6,0,0,1-2-7.27,14.79,14.79,0,0,1,12.47-14.54Zm4.51,17.73V54.22l7.62,7.62A14.66,14.66,0,0,1,149.26,65.57Zm10.46-7.27L149.26,47.84V36.49A14.8,14.8,0,0,1,161.74,51,14.6,14.6,0,0,1,159.72,58.3Z"/><path class="cls-2" d="M.05,188.23,1.73,184c3.64,2.28,7.52,3.6,10.4,3.56,3.12,0,5.16-1.36,5.2-4s-4-3.36-8-4.48c-4.44-1.16-9.52-3-9.28-8.48.16-4.84,4.28-7.64,9.48-7.72A19.28,19.28,0,0,1,21,166.76l-2,3.44a15.89,15.89,0,0,0-9.44-3.44c-2.92.08-5.08,1.56-5.2,4.12s2.76,3.48,6.2,4.44c4.92,1.32,11.11,2.72,11.11,8s-3.67,8.28-9.47,8.36C8.77,191.71,4.61,190.59.05,188.23Z"/><path class="cls-2" d="M28.53,191.27H24l10-28h5.92l10,28H45.32l-8.39-24.51Z"/><path class="cls-2" d="M65.69,191.27H59.77l-10-28h4.52l8.4,24.47,8.39-24.47h4.52Z"/><path class="cls-2" d="M98.6,191.27H79.29v-28H98.6v3.88H83.49V175H96.68v3.6H83.49v8.79H98.6Z"/><path class="cls-2" d="M125.69,191.67h-2a8.42,8.42,0,0,1-8.4-8.51v-11.4h-1.12v-4.08h1.12v-4.4h4.08v4.4h4.72v4.08h-4.72v11.4a4.38,4.38,0,0,0,4.32,4.35h2Z"/><path class="cls-2" d="M132.41,191.27h-4.08V162.08h4.08v8.32a12,12,0,0,1,8.07-3.12,12.24,12.24,0,0,1,12.24,12.36v11.63h-4.08V179.64a8.12,8.12,0,1,0-16.23,0Z"/><path class="cls-2" d="M156,179.44a12.15,12.15,0,0,1,12.15-12.16,10.85,10.85,0,0,1,10.64,8.64l-16.19,9.35a8.18,8.18,0,0,0,5.55,2.32,8.3,8.3,0,0,0,6.44-2.75l3,2.67c-2.52,3.2-6.72,4.16-9.48,4.16A12.17,12.17,0,0,1,156,179.44Zm18-5.12a7,7,0,0,0-5.88-3,8.11,8.11,0,0,0-8.07,8.08,8.26,8.26,0,0,0,.4,2.48Z"/><path class="cls-2" d="M194.45,188.23l1.68-4.2c3.64,2.28,7.51,3.6,10.39,3.56,3.12,0,5.16-1.36,5.2-4s-4-3.36-8-4.48c-4.43-1.16-9.51-3-9.27-8.48.16-4.84,4.28-7.64,9.47-7.72a19.33,19.33,0,0,1,11.48,3.88l-2,3.44a15.89,15.89,0,0,0-9.44-3.44c-2.91.08-5.07,1.56-5.19,4.12s2.75,3.48,6.19,4.44c4.92,1.32,11.12,2.72,11.12,8s-3.68,8.28-9.48,8.36C203.16,191.71,199,190.59,194.45,188.23Z"/><path class="cls-2" d="M224.73,191.27h-4.2v-28h11.39a9.16,9.16,0,0,1,9.6,9.4c0,5.12-3.44,9.44-9.6,9.44h-7.19Zm0-24.15v11.16h7a5.51,5.51,0,0,0,5.56-5.6,5.45,5.45,0,0,0-5.56-5.56Z"/><path class="cls-2" d="M244.49,177.28a14.4,14.4,0,1,1,14.43,14.39A14.42,14.42,0,0,1,244.49,177.28Zm24.75,0a10.34,10.34,0,1,0-10.32,10.31A10.46,10.46,0,0,0,269.24,177.28Z"/><path class="cls-2" d="M287.36,191.27h-4.2V167.36h-7.59v-4.08H295v4.08h-7.6Z"/></g></g></svg>